<?xml version="1.0" standalone="no"?>
<!DOCTYPE svg PUBLIC "-//W3C//DTD SVG 20010904//EN"
 "http://www.w3.org/TR/2001/REC-SVG-20010904/DTD/svg10.dtd">
<svg version="1.0" xmlns="http://www.w3.org/2000/svg"
 width="512.000000pt" height="512.000000pt" viewBox="0 0 512.000000 512.000000"
 preserveAspectRatio="xMidYMid meet">

<g transform="translate(0.000000,512.000000) scale(0.100000,-0.100000)"
fill="#000000" stroke="none">
<path d="M609 4561 c-34 -34 -39 -83 -13 -120 31 -43 70 -51 258 -51 99 0 187
-5 203 -11 35 -13 71 -46 90 -83 21 -40 635 -2348 629 -2363 -3 -7 -14 -13
-24 -13 -37 0 -140 -61 -187 -111 -25 -27 -58 -75 -73 -107 -23 -49 -27 -70
-27 -152 0 -82 4 -103 27 -153 38 -80 114 -158 191 -193 53 -24 78 -29 168
-32 l106 -4 -25 -62 c-36 -88 -41 -200 -12 -285 38 -114 123 -210 228 -259 51
-24 69 -27 172 -27 109 0 118 2 181 32 206 101 296 354 199 556 -11 22 -20 42
-20 44 0 2 158 3 351 3 331 0 351 -1 344 -17 -55 -131 -64 -194 -41 -297 30
-131 110 -230 236 -290 60 -29 73 -31 175 -31 105 0 114 2 178 33 86 42 156
113 198 198 29 57 34 80 37 158 3 75 0 102 -17 151 -12 33 -24 68 -28 78 -5
16 5 17 124 17 124 0 131 1 156 24 49 45 46 111 -7 150 -27 21 -34 21 -1320
26 l-1293 5 -37 29 c-44 33 -76 95 -76 146 0 51 32 113 76 146 l37 29 1373 5
1374 5 24 25 c18 19 94 232 300 843 152 450 276 829 276 843 0 34 -48 81 -91
89 -19 3 -830 99 -1802 214 -973 115 -1770 211 -1773 214 -3 3 -27 87 -54 187
-56 209 -83 272 -145 334 -89 88 -156 105 -418 106 l-199 0 -29 -29z m2629
-1015 c898 -106 1635 -196 1638 -199 4 -3 -101 -324 -232 -712 l-239 -705
-1207 0 c-665 0 -1208 2 -1208 4 0 2 -105 399 -234 882 -129 484 -238 892
-241 907 l-7 28 48 -6 c27 -4 784 -93 1682 -199z m-861 -2388 c60 -15 137 -87
152 -143 41 -151 -58 -285 -210 -285 -125 1 -219 94 -219 217 1 113 99 215
213 222 10 1 39 -4 64 -11z m1472 -21 c24 -12 57 -41 74 -65 26 -36 32 -54 35
-111 4 -74 -9 -113 -57 -164 -64 -70 -177 -89 -262 -44 -84 44 -134 154 -110
244 39 144 186 209 320 140z"/>
<path d="M35 3588 c-56 -49 -40 -134 30 -164 69 -29 201 -12 230 29 25 36 19
100 -11 131 -25 25 -32 26 -125 26 -87 0 -101 -2 -124 -22z"/>
<path d="M577 3582 c-52 -54 -29 -142 42 -162 59 -16 395 -13 437 5 47 19 70
72 54 121 -21 62 -30 64 -280 64 l-226 0 -27 -28z"/>
<path d="M283 2999 c-42 -12 -63 -44 -63 -95 0 -31 6 -48 26 -68 l27 -26 462
0 462 0 27 26 c55 55 23 152 -55 168 -50 10 -850 5 -886 -5z"/>
<path d="M239 2301 c-33 -33 -38 -75 -15 -120 24 -46 49 -51 277 -51 l211 0
34 34 c36 36 42 67 22 111 -23 50 -48 55 -283 55 l-217 0 -29 -29z"/>
<path d="M1061 2316 c-59 -33 -67 -102 -16 -153 l35 -35 94 4 c75 2 98 7 115
22 46 42 43 117 -6 156 -21 17 -41 20 -112 20 -52 -1 -95 -6 -110 -14z"/>
</g>
</svg>
